#!OML:ASF F:\VICON\USERDATA\INSTALL\rory3\rory3.ASF
:FULLY-SPECIFIED
:DEGREES
28
root 0.3041830737281542 17.908323583293132 1.742442614669466 -1.9243204326221763 -1.5030674333934324 1.4446341927724138
lfemur 4.580221357971219 -1.7626424178973426 -25.002478542643424
ltibia 22.534563715213235
lfoot -10.676562693839163 4.2600031317392
ltoes -14.656331452323778
rfemur -31.920355179110217 1.9786774547442327 18.52893916271464
rtibia 55.733779739411474
rfoot -11.652384822567043 -4.737108378972762
rtoes 3.3613130620059763
lowerback 10.208506238993657 -0.8452085653389282 -4.119101974782088
upperback 0.46830179240153913 -1.6501732494629415 1.2990762354345446
thorax -5.228722485918439 -0.6717481645112379 3.6924873850442284
lowerneck -17.472644916195787 -2.719028716948232 -1.2505968235383405
upperneck 20.641683045583743 -3.5324436066410967 1.2715637917332239
head 9.430173182806012 -1.6894082007222821 0.3475776853345649
lclavicle -3.100978220396337e-15 -6.186216955446304e-16
lhumerus -22.2994226108282 -4.613699918290852 83.19417276619599
lradius 31.674114918930925
lwrist 8.09993153815213
lhand -26.92542007265085 22.90789701561707
lfingers 7.1250199999999975
lthumb -0.3480692727765535 52.857673613271686
rclavicle -3.100978220396337e-15 -6.186216955446304e-16
rhumerus -31.949493576126475 -19.348231600313735 -81.54994519660977
rradius 23.85169647868802
rwrist 2.209430873534359
rhand -16.808870119459225 22.100625193096633
rfingers 7.1250199999999975
rthumb 9.419441744837792 -8.292956499537883
29
root 0.3312160619759499 17.97971154137356 3.135913976166023 -1.715494987980079 -2.4205217464020112 0.7657122801437541
lfemur 7.333576779709357 -1.834930757566932 -24.7138747826774
ltibia 18.983832991963865
lfoot -5.906931445563093 0.4644172723330615
ltoes -16.920557762665805
rfemur -32.66318085156505 2.8626584274892073 19.37729220353018
rtibia 49.74896772639272
rfoot -11.869464920576451 -3.808668127232496
rtoes 1.6679256545327563
lowerback 9.968405380317686 -1.093041700142599 -3.843769318196303
upperback 0.34656526020982287 -1.8853861463725403 1.5890582914126112
thorax -5.175774877556304 -0.7957656218510526 3.876771200252785
lowerneck -17.450717140380835 -2.6442151091872135 -1.3949835760763878
upperneck 20.858399274005247 -3.4063697432015583 1.0508976645520054
head 9.506927457539637 -1.6465662172047837 0.3043616933371187
lclavicle -3.3710202029627747e-15 -7.987382090235665e-16
lhumerus -22.288862265649897 -4.18287642014921 82.67577261622559
lradius 32.65943509464198
lwrist 8.608748915600966
lhand -26.578529471518515 22.985150526470008
lfingers 7.1250199999999975
lthumb -0.013078181679220813 52.92590175875739
rclavicle -3.3710202029627747e-15 -7.987382090235665e-16
rhumerus -32.61561911214867 -19.866007642503273 -81.03468865462602
rradius 24.308699109865373
rwrist 2.3477825774910817
rhand -16.719185535717905 22.080048452404526
rfingers 7.1250199999999975
rthumb 9.505989718543983 -8.315192268452588
30
root 0.3727938286511878 18.047122121622756 4.166576564535232 -1.5987153335966227 -3.2103720522516026 0.3568773190449823
lfemur 9.640270466672657 -1.9690744905505306 -24.50153033118562
ltibia 17.548454862965272
lfoot -0.9149319723847444 -3.0549622455086354
ltoes -16.390962622720423
rfemur -31.864895193773812 3.692566355429565 20.34171618290914
rtibia 44.00444226348084
rfoot -11.843864414672558 -2.711843721006009
rtoes 0.05235629091190974
lowerback 9.775826935902764 -1.233924647094903 -3.401314899685807
upperback 0.22601107444957091 -1.9640169510815992 1.8343857761542204
thorax -5.126479101177019 -0.8496661683814627 4.008809984672485
lowerneck -17.365149382565644 -2.584541099236299 -1.4937010422297154
upperneck 21.089670080738042 -3.304001520713497 0.8691530086269362
head 9.58499835036132 -1.6133378878730005 0.27130054902161926
lclavicle -3.0121879619184246e-15 -5.593925452924949e-16
lhumerus -22.56168466051062 -3.760294517993384 82.21773466732535
lradius 33.48526823674611
lwrist 8.49118116718958
lhand -25.979073567365802 23.17607759205504
lfingers 7.1250199999999975
lthumb 0.5658571948974064 53.11368709125201
rclavicle -3.0121879619184246e-15 -5.593925452924949e-16
rhumerus -33.065617043854 -20.429645952701215 -80.3971998543716
rradius 24.846118199349853
rwrist 2.929538730049804
rhand -16.690230632149536 21.914445551605308
rfingers 7.1250199999999975
rthumb 9.533925904105637 -8.389811118978718
31
root 0.10773226663836348 18.25549174769478 6.1050083038986145 1.8775102311224026 -2.380272407736383 -0.3126453489435126
lfemur 13.241138944460527 -1.5427568861135643 -24.95652842838794
ltibia 23.166047676791287
lfoot 9.66934789100885 -8.586347384154289
ltoes -20.103491395314386
rfemur -39.708572911124605 2.494700699438221 23.188706999628575
rtibia 51.550518738557315
rfoot -5.315318013533986 -0.9743075847691687
rtoes -4.303791689650814
lowerback 12.255897596439121 -1.254201903816849 -2.6604348813980234
upperback -0.8097183641982807 -1.898940642105925 2.210827299178753
thorax -7.502385540535158 -0.7569945710168182 4.544465517835062
lowerneck -19.46494498169198 -2.3443691350016325 -1.703367800589147
upperneck 17.695724750861004 -3.0656286071266807 1.6478279988647435
head 8.771622202965021 -1.3804990994173774 0.5018092609123095
lclavicle -1.990150665364022e-15 8.751426201748749e-16
lhumerus -27.97801769850721 -11.528825939629003 88.7032580374766
lradius 79.70346455689264
lwrist 22.42355910044885
lhand -24.56306304034735 12.627704818691255
lfingers 7.125019999999999
lthumb 1.9334221466354997 42.56416049824809
rclavicle -1.990150665364022e-15 8.751426201748749e-16
rhumerus -49.67045629916872 -7.958247613275336 -88.53781206980453
rradius 67.82028564810565
rwrist -4.045656951730377
rhand -16.03877361705641 31.067756785425786
rfingers 7.125019999999999
rthumb 10.162262612785701 0.942365431084148
32
root 0.15516089220085366 18.351117421944046 7.524754051085616 2.0930418467711407 -3.023677808545181 -0.42543194928495787
lfemur 13.984254198400038 -2.3291417743910343 -25.30268197639108
ltibia 21.916839167146918
lfoot 14.036208249282685 -10.785705837999894
ltoes -16.897674969514632
rfemur -38.338977943626354 2.9807028939857 23.655729298454595
rtibia 41.91702648875608
rfoot -4.972846440763685 -0.7174295365004291
rtoes -7.4324127227515735
lowerback 11.916903543696845 -1.4244627591451455 -2.376343059046045
upperback -0.9726765747365402 -2.061288466398684 2.326680881743718
thorax -7.42154405457917 -0.846313185343252 4.441111503670643
lowerneck -19.41256220495986 -2.3027567482618654 -1.7834818979386853
upperneck 17.92937614167553 -2.9884126355341456 1.5075820373894553
head 8.841218880001275 -1.3549335851449889 0.46193031953296626
lclavicle -2.394413726828481e-15 5.916941300569932e-16
lhumerus -28.748769240528453 -11.80710413500147 88.25985403025643
lradius 79.62959514343628
lwrist 21.374947084458626
lhand -24.646066016924234 12.094986059455731
lfingers 7.125019999999999
lthumb 1.8532868804681961 42.03924914232522
rclavicle -2.394413726828481e-15 5.916941300569932e-16
rhumerus -50.248938755881866 -8.989982484331094 -87.73947324633473
rradius 68.41165050622365
rwrist -3.324341071636284
rhand -16.093595505072525 31.286381717858017
rfingers 7.125019999999999
rthumb 10.109360790242553 1.1873322404655302
33
root 0.20865120076229698 18.417964006198876 9.273943063798917 2.273007651955948 -3.1828585513436964 -0.03720387804193681
lfemur 14.722529945428615 -3.5534259616733697 -26.243751934450845
ltibia 22.093414501377584
lfoot 16.107134679492805 -12.350903088977862
ltoes -13.881020506837345
rfemur -37.217506929893105 3.128156195984648 23.537963424468604
rtibia 32.62629218378308
rfoot -4.2973466548423715 -0.9543178766941862
rtoes -9.546929613647354
lowerback 11.680696832726747 -1.6788746943311184 -2.3677877730837915
upperback -1.059267680397681 -2.383918903042923 2.2679252114030533
thorax -7.325791041576158 -1.0098478387553014 4.390626897221829
lowerneck -19.482325200019375 -2.3090637048389553 -1.8894235197535574
upperneck 18.08407140623821 -2.958079955531663 1.3578297814329652
head 8.895646928473884 -1.3544246569133107 0.4219851306445535
lclavicle -2.6191807079691537e-15 4.3409831885242545e-16
lhumerus -29.015232730277965 -12.320307590294613 87.91997372681509
lradius 78.74119564553443
lwrist 20.49319505692071
lhand -24.623861757945257 12.123819345092452
lfingers 7.125019999999999
lthumb 1.8747815266659051 42.07802048813641
rclavicle -2.6191807079691537e-15 4.3409831885242545e-16
rhumerus -50.49286967560181 -10.198080630219554 -86.9517831703529
rradius 69.02753845420968
rwrist -2.706311544006163
rhand -16.076586676846976 31.487415435680823
rfingers 7.125019999999999
rthumb 10.125748434043933 1.4349690318286363
34
root 0.26817741321619953 18.468323248825772 11.236196142175109 2.2670027853969925 -3.110730590645808 0.4116021981713165
lfemur 14.96268112369357 -4.53797061601939 -26.945266907109673
ltibia 24.166549516247965
lfoot 17.203936698495735 -13.455516275838876
ltoes -11.073716779528192
rfemur -35.670732062479786 2.974387777937664 23.589581643462797
rtibia 26.758462815597458
rfoot -3.375724569710993 -1.3921964565034672
rtoes -9.74580305251698
lowerback 11.593764227909878 -1.8683533540055106 -2.3189817728282778
upperback -1.0584396997430685 -2.6360640921348133 2.1970001778483477
thorax -7.2302375118778555 -1.1398561491669712 4.353500910612951
lowerneck -19.502997084346053 -2.3216310079678344 -1.9605880593875473
upperneck 18.09586137910549 -2.9349066668629002 1.2572097587959377
head 8.895260189361508 -1.3587829531655748 0.3986668265844984
lclavicle -2.4762241722959326e-15 5.343286146463891e-16
lhumerus -29.362828365793774 -12.665874512856588 87.82513302953022
lradius 77.73653053731518
lwrist 19.859449712331788
lhand -24.6878131889927 12.168080046500677
lfingers 7.125019999999999
lthumb 1.8130677058936786 42.13107044855029
rclavicle -2.4762241722959326e-15 5.343286146463891e-16
rhumerus -50.54060134087327 -11.367366752023877 -86.34726726887689
rradius 69.53523748547563
rwrist -1.9036428442158586
rhand -16.091426049450856 31.5475453956821
rfingers 7.125019999999999
rthumb 10.11135360294162 1.5095306674167022
